<?xml version="1.0" encoding="UTF-8"?>
<svg width="24px" height="24px" viewBox="0 0 24 24" version="1.1" xmlns="http://www.w3.org/2000/svg" xmlns:xlink="http://www.w3.org/1999/xlink">
    <title>moshi</title>
    <defs>
        <linearGradient x1="50%" y1="0%" x2="50%" y2="100%" id="linearGradient-1">
            <stop stop-color="#1D6FE4" offset="0%"></stop>
            <stop stop-color="#3FA8F3" offset="100%"></stop>
        </linearGradient>
    </defs>
    <g id="新版" stroke="none" stroke-width="1" fill="none" fill-rule="evenodd">
        <g id="系统配置" transform="translate(-345.000000, -222.000000)" fill="url(#linearGradient-1)" fill-rule="nonzero">
            <g id="编组-2备份-3" transform="translate(296.000000, 164.000000)">
                <g id="moshi" transform="translate(49.000000, 58.000000)">
                    <path d="M6,23.32 L2.66666666,23.32 C1.19333331,23.32 1.8189894e-12,22.1266667 1.8189894e-12,20.6533333 L1.8189894e-12,9.98666666 C1.8189894e-12,8.51333331 1.19333334,7.32 2.66666666,7.32 L6,7.32 C7.47333334,7.32 8.66666666,8.51333334 8.66666666,9.98666666 L8.66666666,20.6533333 C8.66666666,22.1266667 7.47333331,23.32 6,23.32 Z M21.3333333,23.32 L13.3333333,23.32 C11.86,23.32 10.6666667,22.1266667 10.6666667,20.6533333 L10.6666667,9.98666666 C10.6666667,8.51333331 11.86,7.32 13.3333333,7.32 L21.3333333,7.32 C22.8066667,7.32 24,8.51333334 24,9.98666666 L24,20.6533333 C24,22.1266667 22.8066667,23.32 21.3333333,23.32 Z M21.3333333,5.33333334 L2.66666666,5.33333334 C1.19333331,5.33333334 0,4.14 0,2.66666666 C0,1.19333331 1.19333334,0 2.66666666,0 L21.3333333,0 C22.8066667,0 24,1.19333334 24,2.66666666 C24,4.13999997 22.8066667,5.33333334 21.3333333,5.33333334 Z" id="形状结合"></path>
                </g>
            </g>
        </g>
    </g>
</svg>